# xmcd
#
# Track frame offsets: 
#        150
#        22105
#        33685
#        47452
#        68685
#        91725
#        106840
#        129705
#        156585
#        190010
#
# Disc length: 2813 seconds
#
# Revision: 5
# Processed by: cddbd v1.5.2PL0 Copyright (c) Steve Scherf et al.
# Submitted via: ExactAudioCopyFreeDBPlugin 1.0
#
DISCID=800afb0a
DTITLE=Tuck and Patti - Love Warriors
DYEAR=1989
DGENRE=Jazz
TTITLE0=Love Warriors
TTITLE1=Honey Pie
TTITLE2=They Can't Take That Away From Me
TTITLE3=Hold Out, Hold Up and Hold On
TTITLE4=Cantador (Like a Lover)
TTITLE5=On A Clear Day
TTITLE6=Europa
TTITLE7=Castles Made of Sand - Little Wing
TTITLE8=Glory Glory
TTITLE9=If It's Magic
EXTD=YEAR: 1989
EXTT0=
EXTT1=
EXTT2=
EXTT3=
EXTT4=
EXTT5=
EXTT6=
EXTT7=
EXTT8=
EXTT9=
PLAYORDER=
